<?xml version="1.0" encoding="UTF-8" standalone="no"?>
<svg
   xmlns:dc="http://purl.org/dc/elements/1.1/"
   xmlns:cc="http://creativecommons.org/ns#"
   xmlns:rdf="http://www.w3.org/1999/02/22-rdf-syntax-ns#"
   xmlns:svg="http://www.w3.org/2000/svg"
   xmlns="http://www.w3.org/2000/svg"
   xmlns:sodipodi="http://sodipodi.sourceforge.net/DTD/sodipodi-0.dtd"
   xmlns:inkscape="http://www.inkscape.org/namespaces/inkscape"
   enable-background="new 0 0 32 32"
   height="32px"
   id="Layer_1"
   version="1.1"
   viewBox="0 0 32 32"
   width="32px"
   xml:space="preserve"
   inkscape:version="0.48.4 r"
   sodipodi:docname="modifData.svg"><metadata
     id="metadata17"><rdf:RDF><cc:Work
         rdf:about=""><dc:format>image/svg+xml</dc:format><dc:type
           rdf:resource="http://purl.org/dc/dcmitype/StillImage" /><dc:title></dc:title></cc:Work></rdf:RDF></metadata><defs
     id="defs15" /><sodipodi:namedview
     pagecolor="#ffffff"
     bordercolor="#666666"
     borderopacity="1"
     objecttolerance="10"
     gridtolerance="10"
     guidetolerance="10"
     inkscape:pageopacity="0"
     inkscape:pageshadow="2"
     inkscape:window-width="1920"
     inkscape:window-height="1017"
     id="namedview13"
     showgrid="false"
     inkscape:zoom="20.85965"
     inkscape:cx="18.655858"
     inkscape:cy="15.254541"
     inkscape:window-x="-8"
     inkscape:window-y="-8"
     inkscape:window-maximized="1"
     inkscape:current-layer="Layer_1" /><g
     id="g3"><polyline
       fill="none"
       points="   649,137.999 675,137.999 675,155.999 661,155.999  "
       stroke="#FFFFFF"
       stroke-linecap="round"
       stroke-linejoin="round"
       stroke-miterlimit="10"
       stroke-width="2"
       id="polyline5" /><polyline
       fill="none"
       points="   653,155.999 649,155.999 649,141.999  "
       stroke="#FFFFFF"
       stroke-linecap="round"
       stroke-linejoin="round"
       stroke-miterlimit="10"
       stroke-width="2"
       id="polyline7" /><polyline
       fill="none"
       points="   661,156 653,162 653,156  "
       stroke="#FFFFFF"
       stroke-linecap="round"
       stroke-linejoin="round"
       stroke-miterlimit="10"
       stroke-width="2"
       id="polyline9" /></g><path
     d="m 16.426684,15.682584 c 1.015629,-1.173308 1.639218,-2.718396 1.639218,-4.415014 0,-3.652407 -2.865637,-6.624178 -6.3876,-6.624178 -3.5219645,0 -6.3876017,2.971771 -6.3876017,6.624178 0,3.652406 2.8656372,6.624179 6.3876017,6.624179 1.24159,0 2.397745,-0.375095 3.379839,-1.013501 3.473259,1.357129 5.864616,4.653485 6.168826,8.465701 H 2.1304349 c 0.2067986,-2.566041 1.367745,-4.959026 3.2560794,-6.666408 0.3329537,-0.300572 0.3672871,-0.823055 0.07745,-1.16834 C 5.1749253,17.164745 4.6703048,17.128311 4.3373511,17.428891 1.8980862,19.633086 0.5,22.819316 0.5,26.171979 0.5,26.629874 0.8577057,27 1.29845,27 h 20.759704 c 0.441543,0 0.798449,-0.370126 0.798449,-0.828021 0,-4.542531 -2.539072,-8.599013 -6.429919,-10.489388 z M 6.8876001,11.26757 c 0,-2.739926 2.1486289,-4.968134 4.7907019,-4.968134 2.642071,0 4.7907,2.228208 4.7907,4.968134 0,2.739926 -2.148629,4.968135 -4.7907,4.968135 -2.642073,0 -4.7907019,-2.228209 -4.7907019,-4.968135 z"
     id="path11"
     inkscape:connector-curvature="0"
     style="stroke:none" /><g
     style="stroke:#000000;stroke-width:1.16577327;stroke-miterlimit:4;stroke-opacity:1;stroke-dasharray:none"
     id="g11"
     transform="matrix(0.44305626,0,0,0.44325125,18.123546,5.4391543)"><path
       style="stroke:#000000;stroke-width:1.12827659;stroke-linecap:round;stroke-linejoin:round;stroke-miterlimit:4;stroke-opacity:1;stroke-dasharray:none"
       d="M 16,30 C 12.26,30 8.745,28.544 6.101,25.899 1.779,21.578 0.753,15.025 3.547,9.595 3.8,9.104 4.402,8.911 4.894,9.163 5.385,9.415 5.579,10.018 5.326,10.51 2.931,15.165 3.81,20.781 7.515,24.485 9.781,26.752 12.794,28 16,28 19.205,28 22.219,26.752 24.485,24.485 26.751,22.218 28,19.205 28,16 28,12.794 26.752,9.781 24.485,7.515 22.218,5.249 19.206,4 16,4 12.794,4 9.781,5.249 7.515,7.515 7.124,7.906 6.492,7.906 6.101,7.515 5.71,7.124 5.71,6.492 6.101,6.101 8.745,3.457 12.26,2 16,2 19.74,2 23.256,3.457 25.899,6.101 28.544,8.745 30,12.26 30,16 30,19.739 28.544,23.255 25.899,25.899 23.256,28.544 19.74,30 16,30 z"
       id="path13"
       inkscape:connector-curvature="0" /></g><g
     id="g3006"
     transform="matrix(0.38792001,0,0,0.38792001,18.643509,5.650916)"><polygon
       id="polygon11"
       points="19,24 22,27 19,27 "
       transform="matrix(1.6934346,0,0,1.6933577,-22.734763,-19.864337)"
       style="stroke:#000000;stroke-width:0.54898018;stroke-linecap:round;stroke-linejoin:round;stroke-miterlimit:4;stroke-opacity:1;stroke-dasharray:none" /><rect
       id="rect13"
       y="-28.550896"
       x="-6.3539596"
       width="11.973889"
       transform="matrix(-0.70712285,0.70709071,-0.70712285,-0.70709071,0,0)"
       height="7.1850109"
       style="stroke:#000000;stroke-width:0.92964089;stroke-linecap:round;stroke-linejoin:round;stroke-miterlimit:4;stroke-opacity:1;stroke-dasharray:none" /></g></svg>