<?xml version="1.0" encoding="UTF-8" standalone="no"?>
<!-- Generator: Adobe Illustrator 16.0.0, SVG Export Plug-In . SVG Version: 6.00 Build 0)  -->

<svg
   xmlns:dc="http://purl.org/dc/elements/1.1/"
   xmlns:cc="http://creativecommons.org/ns#"
   xmlns:rdf="http://www.w3.org/1999/02/22-rdf-syntax-ns#"
   xmlns:svg="http://www.w3.org/2000/svg"
   xmlns="http://www.w3.org/2000/svg"
   xmlns:sodipodi="http://sodipodi.sourceforge.net/DTD/sodipodi-0.dtd"
   xmlns:inkscape="http://www.inkscape.org/namespaces/inkscape"
   version="1.1"
   id="Calque_1"
   x="0px"
   y="0px"
   width="32"
   height="32"
   viewBox="0 0 32 32"
   enable-background="new 0 0 511.936 511.936"
   xml:space="preserve"
   inkscape:version="0.48.4 r"
   sodipodi:docname="unlock.svg"><metadata
     id="metadata9"><rdf:RDF><cc:Work
         rdf:about=""><dc:format>image/svg+xml</dc:format><dc:type
           rdf:resource="http://purl.org/dc/dcmitype/StillImage" /><dc:title></dc:title></cc:Work></rdf:RDF></metadata><defs
     id="defs7" /><sodipodi:namedview
     pagecolor="#ffffff"
     bordercolor="#666666"
     borderopacity="1"
     objecttolerance="10"
     gridtolerance="10"
     guidetolerance="10"
     inkscape:pageopacity="0"
     inkscape:pageshadow="2"
     inkscape:window-width="1920"
     inkscape:window-height="1017"
     id="namedview5"
     showgrid="false"
     inkscape:zoom="20.862258"
     inkscape:cx="27.932136"
     inkscape:cy="19.073872"
     inkscape:window-x="-8"
     inkscape:window-y="-8"
     inkscape:window-maximized="1"
     inkscape:current-layer="Calque_1" /><path
     clip-rule="evenodd"
     d="m 9.1155093,14.664773 c 0.5485184,0 1.1124887,-0.0095 1.6757967,0.0051 0.201458,0.0052 0.357766,-0.04998 0.504461,-0.178181 0.65201,-0.569926 1.408563,-0.911382 2.271293,-0.99269 0.917454,-0.08645 1.831366,-0.102169 2.716438,0.229326 0.556419,0.208383 1.039005,0.532287 1.514156,0.949291 0,-0.103259 0,-0.171215 0,-0.239133 0,-0.9988 -0.0088,-1.997677 0.003,-2.996282 0.0082,-0.698405 0.140779,-1.379411 0.334997,-2.0506868 0.170903,-0.5906711 0.391431,-1.1598953 0.757098,-1.6545467 0.316041,-0.4274344 0.665164,-0.8263002 1.216798,-0.9807792 0.796446,-0.2229809 1.560551,-0.1970596 2.279156,0.2450098 0.334606,0.2058164 0.553772,0.5239202 0.772822,0.8417913 0.399917,0.5803165 0.636325,1.2295638 0.786444,1.9078848 0.104271,0.4711038 0.199278,0.9529498 0.216559,1.4329678 0.04094,1.137904 0.0332,2.27756 0.04452,3.416555 1.17e-4,0.01163 -0.0078,0.02339 -0.01599,0.04643 -0.66754,0 -1.338739,0 -2.036793,0 0,-0.06893 0,-0.13747 0,-0.206011 0,-0.875536 0.0025,-1.751072 -8.15e-4,-2.626607 -0.0024,-0.637804 -0.120266,-1.257782 -0.365198,-1.8445988 -0.144554,-0.346322 -0.339978,-0.669525 -0.632239,-0.925861 -0.132254,-0.1160246 -0.2331,-0.09415 -0.341923,0.0059 -0.302069,0.277587 -0.50481,0.62352 -0.648624,1.0014858 -0.189081,0.496869 -0.305416,1.011915 -0.313123,1.546267 -0.01514,1.048151 -0.0276,2.096381 -0.03651,3.144611 -5.86e-4,0.06539 0.02452,0.141984 0.06293,0.195073 0.581252,0.803298 0.938899,1.701758 1.129419,2.668448 0.05172,0.262407 0.07072,0.532756 0.08598,0.800456 0.01409,0.247423 0.0067,0.496325 0.0024,0.744487 -0.01297,0.748108 -0.180168,1.463404 -0.463514,2.153752 -0.285801,0.696341 -0.666568,1.330876 -1.166123,1.898583 -1.006234,1.143509 -2.247357,1.874491 -3.743844,2.156865 -0.413112,0.07796 -0.83607,0.150548 -1.253851,0.146928 -0.865012,-0.0074 -1.712369,-0.149621 -2.521309,-0.481036 C 11.061659,24.661563 10.270505,24.150993 9.61036,23.455157 8.7166089,22.513144 8.1107209,21.411709 7.8762978,20.125282 7.8020748,19.718126 7.7258273,19.303067 7.7275792,18.891941 c 0.00366,-0.852571 0.1488352,-1.687396 0.459116,-2.488552 0.2060104,-0.531861 0.4769034,-1.026706 0.8074617,-1.490688 0.049197,-0.06908 0.076208,-0.153973 0.1213571,-0.247928 z m 4.6284877,5.813448 c 0,0.330325 -3.52e-4,0.660728 1.17e-4,0.991093 5.28e-4,0.40233 0.288875,0.704359 0.673767,0.706305 0.401941,0.0021 0.69424,-0.294051 0.694512,-0.704905 4.69e-4,-0.673689 -0.0021,-1.347378 0.0037,-2.02099 5.27e-4,-0.0648 0.03149,-0.151638 0.07912,-0.190248 0.3738,-0.302886 0.578644,-0.665048 0.588841,-1.16982 0.01417,-0.699767 -0.711365,-1.441686 -1.551443,-1.295146 -0.61087,0.106527 -1.003197,0.459777 -1.132455,1.044026 -0.12486,0.564282 0.07769,1.048229 0.543031,1.411637 0.04978,0.03889 0.09485,0.117466 0.09645,0.178805 0.0092,0.349476 0.0044,0.699457 0.0045,1.049243 z"
     id="path3"
     inkscape:connector-curvature="0"
     style="fill-rule:evenodd" /><g
     id="g11"
     transform="matrix(1.0709573,0,0,1.0714287,-1.1287185,-1.142861)"><path
       d="M 16,30 C 12.26,30 8.745,28.544 6.101,25.899 1.779,21.578 0.753,15.025 3.547,9.595 3.8,9.104 4.402,8.911 4.894,9.163 5.385,9.415 5.579,10.018 5.326,10.51 2.931,15.165 3.81,20.781 7.515,24.485 9.781,26.752 12.794,28 16,28 19.205,28 22.219,26.752 24.485,24.485 26.751,22.218 28,19.205 28,16 28,12.794 26.752,9.781 24.485,7.515 22.218,5.249 19.206,4 16,4 12.794,4 9.781,5.249 7.515,7.515 7.124,7.906 6.492,7.906 6.101,7.515 5.71,7.124 5.71,6.492 6.101,6.101 8.745,3.457 12.26,2 16,2 19.74,2 23.256,3.457 25.899,6.101 28.544,8.745 30,12.26 30,16 30,19.739 28.544,23.255 25.899,25.899 23.256,28.544 19.74,30 16,30 z"
       id="path13"
       inkscape:connector-curvature="0" /></g></svg>